<svg width="479" height="569" viewBox="0 0 479 569" fill="none" xmlns="http://www.w3.org/2000/svg">
<path d="M28.56 106.976C47.8368 105.709 55.4813 83.1727 55.4813 83.1727C37.4492 95.9395 32.7186 95.8802 20.0782 95.7316C7.10428 95.5893 0.759625 83.6046 0.759625 83.6046C7.39119 51.9808 109.999 29.1624 111.504 29.2949C113.009 29.4275 113.619 27.1245 112.469 22.9527C111.283 18.7777 111.208 1.1319 121.952 0.970727C126.325 0.891462 125.878 8.49336 127.038 13.3803C128.78 20.4964 130.904 25.7894 130.904 25.7894C130.904 25.7894 131.432 24.4077 162.059 24.4971C192.723 24.5897 197.312 46.8463 197.312 46.8463C196.638 45.68 221.258 18.6033 226.442 16.453C231.626 14.3028 232.801 27.0107 230.127 39.7369C227.489 52.4664 208.595 57.8016 208.595 57.8016C227.018 62.03 246.136 128.128 252.541 142.368C257.803 154.043 277.349 162.333 287.89 168.26C307.067 179.054 326.703 187.995 346.393 197.584C389.778 218.756 418.14 252.568 441.117 292.904C474.538 351.62 485.351 418.344 475.119 484.143C467.81 531.026 434.7 572.602 380.51 567.832C350.514 565.191 328.055 542.933 313.312 519.175C297.302 493.414 283.271 459.471 287.905 429.1C292.44 399.434 322.349 375.322 346.512 359.31C327.019 369.342 306.763 380.056 294.545 397.798C267.476 437.157 286.224 497.795 315.482 531.507C307.696 536.32 298.63 539.271 289.388 540.029C282.679 540.581 275.459 539.803 270.151 535.801C260.61 528.605 261.199 514.767 262.662 503.184C263.121 499.653 267.893 482.006 262.709 480.8C259.084 479.945 258.638 485.44 257.859 487.978C255.158 496.81 253.82 506.119 251.734 515.112C249.225 525.96 244.717 557.414 229.131 558.791C207.579 560.679 189.354 447.027 183.831 446.719C182.727 446.658 181.299 495.236 181.34 500.239C181.373 504.062 182.95 547.513 172.906 548.129C162.863 548.744 154.17 531.911 153.042 529.17C141.333 500.787 118.163 412.623 118.163 412.623C118.163 412.623 96.2408 348.956 96.1194 267.534C96.0119 199.824 80.8967 193.745 75.8021 193.617C135.105 187.376 131.447 151.597 131.447 151.597C126.676 166.709 89.8008 188.422 54.8943 180.208C-3.49719 166.427 1.85061 97.2693 1.85061 97.2693C1.85061 97.2693 9.24034 108.31 28.5538 107.047L28.56 106.976ZM178.986 76.4052C178.986 76.4052 176.265 61.9187 165.09 54.7933C149.22 44.6839 130.136 53.4303 130.136 53.4303C130.136 53.4303 156.24 66.2261 178.989 76.3697L178.986 76.4052Z" fill="#4364F7"/>
</svg>
